<?xml version="1.0" encoding="UTF-8" standalone="no"?>
<svg
   xmlns:dc="http://purl.org/dc/elements/1.1/"
   xmlns:cc="http://creativecommons.org/ns#"
   xmlns:rdf="http://www.w3.org/1999/02/22-rdf-syntax-ns#"
   xmlns:svg="http://www.w3.org/2000/svg"
   xmlns="http://www.w3.org/2000/svg"
   viewBox="0 0 128.82808 177.03272"
   height="177.03271"
   width="128.82808"
   id="svg2"
   version="1.1">
  <metadata
     id="metadata8">
    <rdf:RDF>
      <cc:Work
         rdf:about="">
        <dc:format>image/svg+xml</dc:format>
        <dc:type
           rdf:resource="http://purl.org/dc/dcmitype/StillImage" />
        <dc:title></dc:title>
      </cc:Work>
    </rdf:RDF>
  </metadata>
  <defs
     id="defs6" />
  <path
     id="path12"
     d="M 52.97687,176.23868 C 30.459647,172.17238 11.408851,156.01133 3.6444978,134.38935 -2.1420252,118.27518 -0.97443523,98.814888 6.6947428,83.550743 11.437781,74.110564 21.305295,63.265107 30.100997,57.824771 46.361586,47.767225 66.910956,45.306452 84.744513,51.281243 106.342,58.517067 121.72996,75.353829 127.3733,97.923628 c 1.22002,4.879282 1.42819,6.898952 1.45354,14.101692 0.0322,9.13432 -0.54657,13.13455 -2.99313,20.68935 -5.21191,16.09394 -17.19678,30.02468 -32.434684,37.70078 -4.86634,2.45142 -12.345301,4.866 -18.172973,5.86714 -5.923818,1.01765 -16.486162,0.99681 -22.249183,-0.0439 z m 8.625313,-8.53742 c -12.433145,-6.88721 -10.892464,-22.80083 3.081915,-31.83291 11.612192,-7.50532 28.188218,-6.36764 34.625858,2.37652 3.548374,4.81968 4.024964,10.57337 1.369574,16.53418 l -1.370634,3.07678 2.241424,-2.44068 c 1.23278,-1.34237 3.11943,-4.27118 4.19255,-6.50847 1.74722,-3.64266 1.94927,-4.52128 1.9332,-8.40678 -0.0133,-3.2162 -0.31199,-4.98773 -1.15429,-6.84605 -2.292,-5.0567 -7.169854,-9.09856 -13.733154,-11.37949 -4.62548,-1.60748 -15.176306,-1.74165 -20.608892,-0.26208 -10.404849,2.83378 -19.235851,8.83606 -24.440846,16.61202 -3.936521,5.88094 -4.755824,13.79898 -1.992141,19.25284 1.496526,2.95325 5.652946,7.1619 8.583734,8.69159 2.473318,1.29092 7.490305,2.88436 9.170007,2.91249 1.047121,0.0175 0.61478,-0.38785 -1.898305,-1.77996 z m -19.48306,-3.3183 c -8.161553,-10.69222 -4.967274,-26.67196 7.550856,-37.77401 11.32601,-10.04478 29.043537,-14.59252 42.941467,-11.02222 12.950374,3.32687 21.723474,13.26414 21.898414,24.80427 0.0245,1.61736 0.15239,1.49506 1.87077,-1.78941 1.82091,-3.48042 4.21309,-10.04083 4.87734,-13.37577 0.3361,-1.68744 0.29415,-1.72854 -2.63377,-2.57971 C 111.97765,120.7139 102.05646,112.01105 95.852226,102.67054 85.709253,87.400238 81.033012,70.05579 84.440665,60.344402 c 0.704954,-2.009036 0.688526,-2.066234 -0.753823,-2.624108 -5.60384,-2.167458 -20.31085,-4.254395 -17.823181,-2.529123 5.834669,4.046519 8.697405,7.556149 10.745052,13.173131 1.703317,4.672429 1.691737,12.591437 -0.02658,18.150376 -3.917651,12.6743 -13.441166,23.322092 -26.183496,29.274532 -17.591009,8.21744 -34.927806,4.10168 -41.3776202,-9.82306 l -1.825308,-3.94072 -0.38844,2.5903 c -0.713844,4.76025 0.08276,18.1239 1.363111,22.86722 1.352798,5.01172 4.9550322,12.91778 7.9566932,17.46307 2.821818,4.27297 9.997123,11.68233 14.273777,14.73937 3.694489,2.6409 11.745247,7.07682 12.892632,7.10376 0.370912,0.009 -0.157565,-1.07408 -1.17439,-2.40619 z M 80.3512,163.21973 c 6.140101,-1.82039 10.644646,-4.94746 13.470616,-9.35135 7.794834,-12.1472 -7.644728,-21.42312 -23.108804,-13.88352 -13.105687,6.38975 -14.944803,19.66676 -3.231642,23.33001 3.156263,0.98711 9.374497,0.94114 12.86983,-0.0951 z m 42.25963,-51.33 c -0.004,-2.75932 -0.18761,-5.2739 -0.40678,-5.58795 -0.21916,-0.31405 -1.26559,-1.09743 -2.32539,-1.74083 -1.0598,-0.6434 -3.39421,-2.7051 -5.18757,-4.581542 -8.06707,-8.44076 -14.35724,-21.640082 -14.4502,-30.322338 l -0.0326,-3.046216 -3.303044,-2.192244 c -5.03177,-3.339618 -5.60711,-3.565717 -6.19399,-2.434083 -2.32976,4.492274 -0.37964,15.959051 4.5162,26.555471 5.003214,10.82877 15.394724,23.157682 22.461384,26.649082 1.91205,0.94468 3.80358,1.7176 4.20339,1.7176 0.55586,0 0.72498,-1.18061 0.71863,-5.01695 z M 43.248116,111.75267 C 54.049141,108.15318 63.661595,99.666658 68.434037,89.516848 74.862549,75.844975 70.791113,63.130371 58.7985,59.42623 55.201,58.315076 49.22653,58.047198 45.873369,58.846705 l -1.627119,0.387964 2.169492,0.406525 c 8.529437,1.598281 12.887306,5.225009 14.678205,12.215567 2.98937,11.668637 -7.569275,26.618927 -21.675749,30.691329 -4.71878,1.36227 -11.608842,0.92079 -15.314512,-0.98127 -5.791519,-2.972692 -8.602156,-8.234662 -8.239067,-15.424885 l 0.207366,-4.106446 -0.943664,2.113557 c -2.425241,5.431912 -2.689082,14.015052 -0.576745,18.762434 2.193577,4.92996 7.442637,8.95798 13.298579,10.20504 3.806649,0.81065 10.706862,0.19947 15.397961,-1.36385 z M 41.397523,94.777958 c 5.283569,-2.60215 9.202338,-6.41726 11.62341,-11.315963 C 57.358099,74.686336 54.717605,67.691223 46.516222,66.22994 39.374,64.957376 28.541476,71.379738 24.22397,79.446515 c -1.954444,3.651662 -2.572788,9.721473 -1.250779,12.277953 1.978765,3.82651 4.862524,5.20878 10.438469,5.00347 3.632916,-0.13377 4.952197,-0.45591 7.985863,-1.94998 z m 78.013187,-1.33134 c -1.97386,-5.73713 -6.19029,-13.164507 -10.0823,-17.760282 l -2.06693,-2.440678 0.36041,1.898305 c 0.45695,2.406758 4.65393,11.164055 6.94939,14.500415 1.65701,2.40837 5.25576,6.65213 5.64108,6.65213 0.0984,0 -0.26237,-1.28245 -0.80165,-2.84989 z M 22.012691,45.317576 C 21.165866,44.381842 21.082051,43.621435 21.387595,39.646423 22.17999,29.337653 26.81776,19.527669 34.391862,12.139315 55.513901,-8.4647224 91.126346,-1.9296156 103.65736,24.849964 c 2.14718,4.588683 3.75031,11.139336 3.91229,15.986321 0.11503,3.442121 -0.0164,4.127149 -0.91858,4.789277 -0.88928,0.652622 -7.468644,0.772638 -42.356624,0.772638 -40.562489,0 -41.321355,-0.0194 -42.281755,-1.080624 z m 78.911529,-6.669831 c 0,-2.473472 -1.685284,-7.803926 -3.892134,-12.310619 C 92.780216,17.654213 83.604933,10.238029 73.805573,7.5636234 68.492678,6.1136474 59.514313,6.2342754 54.280149,7.8259554 40.400035,12.04682 30.400305,23.471096 27.99484,37.855827 l -0.340116,2.033898 H 64.289473 100.92422 Z M 77.330997,35.575676 c -4.782514,-1.978178 -5.308171,-9.361697 -0.831311,-11.676771 4.558481,-2.357282 9.780464,0.678445 9.780464,5.685735 0,4.506353 -4.78847,7.712009 -8.949153,5.991036 z M 51.297098,34.53171 c -8.026511,-3.681993 -9.860127,-13.866329 -3.615946,-20.083826 5.202257,-5.1800286 12.33472,-5.1800286 17.536977,0 7.935289,7.901378 2.453624,21.079035 -8.768489,21.079035 -1.743783,0 -3.884339,-0.413446 -5.152542,-0.995209 z m 8.020437,-6.078033 c 1.763748,-0.803619 3.098207,-3.237623 3.098207,-5.651026 0,-2.976518 -2.846568,-5.692588 -5.966102,-5.692588 -3.119533,0 -5.966101,2.71607 -5.966101,5.692588 0,2.318007 1.314337,4.83013 2.939769,5.618844 1.519051,0.737095 4.313622,0.752353 5.894227,0.03218 z"
     style="fill:#000000;stroke-width:0.54237288" />
</svg>
