<?xml version="1.0" encoding="UTF-8" standalone="no"?>
<!-- Created with Inkscape (http://www.inkscape.org/) -->

<svg
   xmlns:dc="http://purl.org/dc/elements/1.1/"
   xmlns:cc="http://creativecommons.org/ns#"
   xmlns:rdf="http://www.w3.org/1999/02/22-rdf-syntax-ns#"
   xmlns:svg="http://www.w3.org/2000/svg"
   xmlns="http://www.w3.org/2000/svg"
   xmlns:sodipodi="http://sodipodi.sourceforge.net/DTD/sodipodi-0.dtd"
   xmlns:inkscape="http://www.inkscape.org/namespaces/inkscape"
   version="1.1"
   id="svg2"
   width="141.10304"
   height="190.11369"
   viewBox="0 0 141.10304 190.11369"
   sodipodi:docname="c3p0.svg"
   inkscape:version="0.92.3 (2405546, 2018-03-11)">
  <metadata
     id="metadata8">
    <rdf:RDF>
      <cc:Work
         rdf:about="">
        <dc:format>image/svg+xml</dc:format>
        <dc:type
           rdf:resource="http://purl.org/dc/dcmitype/StillImage" />
        <dc:title></dc:title>
      </cc:Work>
    </rdf:RDF>
  </metadata>
  <defs
     id="defs6" />
  <sodipodi:namedview
     pagecolor="#ffffff"
     bordercolor="#666666"
     borderopacity="1"
     objecttolerance="10"
     gridtolerance="10"
     guidetolerance="10"
     inkscape:pageopacity="0"
     inkscape:pageshadow="2"
     inkscape:window-width="640"
     inkscape:window-height="480"
     id="namedview4"
     showgrid="false"
     inkscape:zoom="1.1214562"
     inkscape:cx="69.127062"
     inkscape:cy="94.588947"
     inkscape:window-x="544"
     inkscape:window-y="261"
     inkscape:window-maximized="0"
     inkscape:current-layer="svg2" />
  <path
     style="fill:#000000;stroke-width:0.54237288"
     d="m 66.957569,189.8864 c -4.246329,-0.74044 -25.387783,-6.89264 -27.952685,-8.13428 -3.839094,-1.85848 -8.13544,-6.12707 -10.020119,-9.9554 -1.345182,-2.73245 -3.200487,-10.51565 -9.783373,-41.04227 -4.467867,-20.71871 -8.40124,-40.074036 -8.740827,-43.01184 -1.1252418,-9.734563 0.920508,-21.326118 5.481487,-31.058988 8.165939,-17.42566 23.430259,-29.316591 42.879924,-33.403535 4.3271,-0.90925 6.49932,-1.038458 13.559322,-0.806535 10.108643,0.332071 15.769004,1.686734 24.212623,5.794673 16.144479,7.854519 27.239129,21.538608 32.070419,39.555497 1.22091,4.553069 1.39561,6.294677 1.41851,14.141705 l 0.0261,8.949157 -8.25051,38.072926 c -4.53779,20.94011 -8.73952,39.36723 -9.3372,40.94915 -1.78182,4.71613 -6.08261,9.37784 -10.95408,11.87333 -2.616749,1.34047 -25.956521,7.85209 -29.457061,8.21829 -1.491525,0.15604 -3.81017,0.0922 -5.152542,-0.14188 z m 18.614477,-9.8281 c 6.210845,-1.75701 12.245045,-3.68054 13.409325,-4.27452 2.702649,-1.37878 5.635129,-4.31032 7.012559,-7.0103 0.91498,-1.79351 3.26872,-10.79253 3.26872,-12.49723 0,-0.3505 -3.81314,-0.54812 -10.576269,-0.54812 H 88.110112 v 3.25424 3.25424 H 70.211807 52.313502 v -3.25424 -3.25424 H 41.700681 c -9.848795,0 -10.593369,0.0683 -10.342632,0.94916 0.148604,0.52203 0.686134,2.90169 1.194512,5.28813 0.508378,2.38644 1.482586,5.45277 2.164906,6.81408 1.301596,2.59682 4.534023,5.86196 7.134568,7.20675 1.452951,0.75135 23.297616,7.06699 26.19028,7.57202 2.519984,0.43997 6.198997,-0.29458 17.529731,-3.49997 z m -3.970409,-27.5844 v -3.25424 H 70.211807 58.821976 v 3.25424 3.25423 h 11.389831 11.38983 z m -29.288135,-6.50848 v -3.25424 h 17.898305 17.898305 v 3.25424 3.25424 h 11.331029 c 11.299829,0 11.331859,-0.003 11.632389,-1.22034 0.16575,-0.67119 3.05824,-13.91186 6.42777,-29.42373 l 6.12642,-28.203386 -0.021,-8.406777 C 123.58927,74.966458 123.3785,72.786624 122.34819,68.948479 117.39907,50.511875 103.59482,36.314447 85.093618,30.632808 80.594641,29.251191 79.542991,29.141873 70.482982,29.114052 58.999316,29.078787 55.583571,29.811703 46.618575,34.234627 35.802374,39.570858 27.642485,47.813331 22.18591,58.914581 c -4.039,8.217231 -5.3017,13.676018 -5.332011,23.050846 l -0.02368,7.322034 6.466062,29.966099 6.466061,29.9661 h 11.275577 11.275578 z m 6.863723,-12.92406 c -1.673074,-1.84873 -1.020599,-3.48635 5.113242,-12.83352 l 6.010858,-9.15978 6.192532,9.3996 c 3.40589,5.16977 6.192526,9.8533 6.192526,10.40783 0,1.2278 -1.852344,3.17773 -3.018706,3.17773 -1.727496,0 -2.912711,-1.17981 -5.983431,-5.95611 -1.729573,-2.69024 -3.279441,-4.88139 -3.444149,-4.86921 -0.164713,0.0121 -1.369573,1.74091 -2.677473,3.84164 -4.356669,6.99764 -6.250489,8.35087 -8.385399,5.99182 z M 42.14917,119.85976 c -8.196759,-1.32715 -14.359704,-7.51232 -15.925604,-15.98306 -1.039709,-5.624296 1.126196,-12.168616 5.462446,-16.504862 9.300902,-9.300903 25.280127,-6.524409 30.852325,5.360796 1.237575,2.63968 1.436182,3.77584 1.436182,8.215836 0,4.44001 -0.198607,5.57617 -1.436182,8.21585 -1.730734,3.69155 -4.91872,7.00461 -8.473557,8.80598 -2.319463,1.17536 -3.612057,1.52918 -7.988567,2.18669 -0.59661,0.0896 -2.36378,-0.0441 -3.927043,-0.29723 z m 4.062637,-6.23619 c 1.134682,-0.30408 1.220339,-0.62716 1.220339,-4.60276 v -4.27573 h -2.169492 -2.169492 v 4.29379 c 0,3.99499 0.233351,4.69432 1.627119,4.87633 0.149153,0.0195 0.820339,-0.11176 1.491526,-0.29163 z m -9.646625,-12.81069 -0.0195,-9.355926 -1.348188,1.62712 c -2.178566,2.62929 -3.209027,6.943876 -2.458933,10.295646 0.540575,2.41555 2.856155,6.78909 3.594496,6.78909 0.138399,0 0.242857,-4.21017 0.232128,-9.35593 z m 19.52887,6.50847 c 1.356214,-2.36483 1.632998,-3.44499 1.632998,-6.37288 0,-2.927876 -0.276784,-4.008046 -1.632998,-6.372876 -0.898153,-1.5661 -1.750096,-2.84746 -1.893218,-2.84746 -0.143115,0 -0.260214,4.14916 -0.260214,9.220336 0,5.07119 0.117099,9.22034 0.260214,9.22034 0.143122,0 0.995065,-1.28135 1.893218,-2.84746 z M 47.432146,92.849434 c 0,-3.826092 -0.120098,-4.340549 -1.084746,-4.646719 -0.59661,-0.189358 -1.572882,-0.189358 -2.169492,0 -0.964648,0.30617 -1.084746,0.820627 -1.084746,4.646719 v 4.30243 h 2.169492 2.169492 z m 44.827385,27.040446 c -6.775019,-1.09793 -13.01894,-6.428 -14.984353,-12.79125 -1.397939,-4.52601 -1.386994,-7.809736 0.04144,-12.434506 0.961698,-3.11362 1.657302,-4.2049 4.474576,-7.019847 4.159745,-4.156306 7.997387,-5.783354 13.640937,-5.783354 7.554109,0 13.806649,3.939807 17.203759,10.840311 1.58987,3.22949 1.77929,4.1075 1.77929,8.247236 0,4.13975 -0.18942,5.01776 -1.77929,8.24724 -3.84562,7.81155 -11.94233,12.06096 -20.376379,10.69417 z m 4.213,-6.25367 c 0.68204,-0.26172 0.85792,-1.20684 0.85792,-4.61017 v -4.28096 h -1.89831 -1.8983 v 4.29379 c 0,4.66221 0.54555,5.51567 2.93869,4.59734 z m -9.447165,-12.7718 c 0,-9.230406 -0.0085,-9.296686 -1.071061,-8.335096 -2.800212,2.53416 -4.134612,8.780836 -2.688337,12.584836 0.57145,1.50302 3.041823,5.05466 3.515813,5.05466 0.133972,0 0.243585,-4.18698 0.243585,-9.3044 z m 19.877624,5.23661 c 0.73512,-1.57677 1.26432,-3.73346 1.26432,-5.15255 0,-2.594436 -1.88763,-7.334146 -3.42851,-8.608776 -0.83224,-0.68843 -0.89988,-0.0414 -0.89988,8.608776 0,8.65016 0.0676,9.29721 0.89988,8.60878 0.49492,-0.4094 1.46881,-1.96471 2.16419,-3.45623 z M 97.330451,92.849434 c 0,-3.717417 -0.13711,-4.345951 -1.00834,-4.622469 -2.28842,-0.726319 -2.78827,0.106196 -2.78827,4.643949 v 4.28095 h 1.8983 1.89831 z M 67.472802,89.957633 c -5.831989,-10.6619 -15.801839,-15.969626 -27.087437,-14.42074 -3.574795,0.49062 -9.235342,2.79328 -11.77234,4.788882 -2.629373,2.068268 -5.587659,0.931319 -5.587659,-2.147482 0,-1.85261 2.022705,-3.71117 6.497072,-5.969822 12.451809,-6.285652 28.246635,-3.590525 37.892504,6.465735 l 2.525678,2.633133 2.003455,-2.304325 c 1.101907,-1.267379 3.670124,-3.443108 5.707157,-4.83495 9.779742,-6.682202 23.015098,-7.633741 33.612708,-2.416553 5.80281,2.856715 7.56717,5.494839 5.14245,7.689176 -1.44169,1.304711 -2.97424,1.110313 -5.90456,-0.748952 -8.37058,-5.311072 -20.366999,-5.050267 -28.869722,0.627629 -4.033578,2.693516 -6.634956,5.698625 -9.549136,11.03113 l -2.196632,4.01951 z M 9.6912292,176.10974 c -0.920215,-0.40066 -2.150545,-1.33543 -2.734065,-2.07725 -1.436979,-1.82683 -5.350477,-20.23464 -4.901851,-23.05671 0.471413,-2.96541 3.309482,-5.40301 6.835211,-5.87071 1.5097558,-0.20028 2.7450108,-0.63796 2.7450108,-0.97263 0,-0.33467 -1.343758,-6.68296 -2.9861288,-14.1073 -1.64237,-7.42436 -4.26122,-19.62757 -5.819665,-27.11825 C 0.05627824,89.576204 -0.00371176,89.091984 1.3324313e-4,80.067122 0.00363324,71.860739 0.16484024,70.207549 1.4660942,65.033946 5.4529472,49.182779 12.139225,37.451369 23.810693,25.829232 35.80178,13.888827 49.246529,5.9960032 65.330451,1.4547922 L 70.482993,0 76.779964,1.9107082 c 16.517777,5.01204 29.594396,13.0104188 41.431846,25.3419978 13.73187,14.305085 21.24127,30.894233 22.80263,50.373739 0.52852,6.593865 -1.17427,16.520259 -8.72966,50.889395 -1.92319,8.74849 -3.4967,15.97633 -3.4967,16.06187 0,0.0855 1.10251,0.30664 2.45002,0.49134 3.73832,0.51239 5.64116,1.74281 6.82136,4.41087 l 1.04073,2.35273 -2.12551,10.16156 c -1.32709,6.3445 -2.51437,10.69245 -3.16072,11.57486 -1.87071,2.55398 -4.19787,3.30983 -10.19333,3.31076 -6.00095,9.3e-4 -7.8495,-0.69498 -7.8495,-2.95502 0,-0.69698 1.93202,-9.77467 4.29337,-20.17263 4.78066,-21.05108 10.60348,-48.00836 12.87013,-59.583366 3.94767,-20.15947 -0.4228,-38.328066 -13.34511,-55.477266 C 112.16696,28.841074 98.977131,18.222069 87.54957,12.896502 81.174237,9.9254162 72.804561,7.1179732 70.322359,7.1179732 c -2.934926,0 -12.571602,3.4713448 -19.638232,7.0741288 C 41.802839,18.720054 35.773641,23.120289 28.421265,30.440006 16.700644,42.108564 9.7469352,55.032553 7.0255412,70.205564 c -1.960479,10.930559 -0.872392,18.784953 8.3913718,60.573416 4.228516,19.07467 9.225157,41.21827 9.574579,42.43165 0.159638,0.55435 -0.289375,1.50023 -1.09423,2.30508 -1.285004,1.28501 -1.692067,1.36372 -6.948938,1.34374 -3.436089,-0.0131 -6.227544,-0.30144 -7.2570948,-0.74971 z m 7.8994618,-6.14432 c -0.006,-0.22373 -0.941586,-4.4339 -2.079037,-9.35593 l -2.068091,-8.94915 -2.264908,-0.16702 c -1.6421718,-0.1211 -2.3522478,0.0606 -2.5825648,0.66077 -0.255305,0.66532 2.4402718,14.90022 3.3214698,17.54014 0.243813,0.73043 5.692497,0.99089 5.673131,0.27119 z m 110.887869,-0.0736 c 0.16327,-0.26419 1.13653,-4.34869 2.16279,-9.07666 1.38433,-6.37756 1.70094,-8.70124 1.22667,-9.00287 -0.60626,-0.38558 -4.70706,-0.60923 -4.70706,-0.25672 0,0.31612 -3.82897,16.92099 -4.12011,17.86744 -0.25116,0.81647 0.0877,0.94915 2.42443,0.94915 1.49402,0 2.84999,-0.21616 3.01328,-0.48034 z"
     id="path12"
     inkscape:connector-curvature="0" />
</svg>
