<?xml version="1.0" encoding="UTF-8" standalone="no"?>
<svg
   xmlns:dc="http://purl.org/dc/elements/1.1/"
   xmlns:cc="http://creativecommons.org/ns#"
   xmlns:rdf="http://www.w3.org/1999/02/22-rdf-syntax-ns#"
   xmlns:svg="http://www.w3.org/2000/svg"
   xmlns="http://www.w3.org/2000/svg"
   viewBox="0 0 155.21707 181.34033"
   height="181.34033"
   width="155.21707"
   id="svg2"
   version="1.1">
  <metadata
     id="metadata8">
    <rdf:RDF>
      <cc:Work
         rdf:about="">
        <dc:format>image/svg+xml</dc:format>
        <dc:type
           rdf:resource="http://purl.org/dc/dcmitype/StillImage" />
        <dc:title></dc:title>
      </cc:Work>
    </rdf:RDF>
  </metadata>
  <defs
     id="defs6" />
  <path
     id="path104"
     d="m 71.267116,177.27261 -5.245499,-4.06779 -4.472445,-0.002 c -10.338255,-0.005 -31.76106,-2.21819 -42.38182,-4.37827 C 7.6389162,166.47983 3.1112502,163.31764 0.67992316,155.9126 -0.67538784,151.78477 -0.24888314,148.86433 4.2140032,131.71346 12.22237,100.93714 15.070424,91.236795 17.669996,85.882783 l 2.50175,-5.152543 0.324338,-15.999999 c 0.299176,-14.75878 0.419681,-16.271728 1.553367,-19.502718 6.685511,-19.05362 23.609992,-33.829828 43.454097,-37.9383504 2.610728,-0.540525 3.13837,-0.872955 4.03847,-2.5443384 3.408466,-6.3291313 13.217138,-6.3256682 16.221586,0.00573 0.786006,1.6563914 1.246964,1.9464344 3.999066,2.5162824 4.569375,0.946131 11.83133,3.5884744 15.85643,5.7695424 11.21707,6.078153 21.4375,17.168306 26.07809,28.297226 2.803,6.722059 3.19024,9.76105 3.20063,25.117698 l 0.009,13.924452 2.17774,4.037391 c 2.2606,4.190996 4.94084,13.052344 13.89646,45.944204 3.83599,14.08867 4.21098,15.91395 4.23415,20.61017 0.0226,4.5822 -0.13732,5.46165 -1.44482,7.94512 -1.64258,3.11991 -4.3256,5.57268 -7.99942,7.31296 -6.40847,3.03568 -35.75476,6.97317 -52.006505,6.97789 l -4.532229,0.001 -4.416928,3.44053 c -4.744238,3.69571 -6.350513,4.6953 -7.544699,4.6953 -0.417112,0 -3.118861,-1.83051 -6.003883,-4.0678 z m 15.514749,-10.30508 8.52906,-6.50848 -8.641976,-0.14886 c -4.75309,-0.0819 -12.713909,-0.0819 -17.690717,0 l -9.048742,0.14886 8.607516,6.61953 c 4.734129,3.64074 8.856873,6.56955 9.161654,6.50847 0.304776,-0.0611 4.392217,-3.03986 9.083205,-6.61952 z m -29.976329,-0.53217 c 0,-0.14355 -2.318644,-2.00379 -5.152542,-4.13389 -2.833898,-2.13009 -5.152542,-4.13863 -5.152542,-4.46342 0,-0.32479 -2.715993,-7.51245 -6.03554,-15.97259 -6.726571,-17.1432 -6.76768,-17.41518 -2.802973,-18.54457 1.132369,-0.32256 8.605705,-2.0186 16.607413,-3.76897 10.8562,-2.37479 14.848102,-3.46306 15.728812,-4.28799 1.76038,-1.64888 3.845652,-2.2625 7.688727,-2.2625 3.835888,0 5.928374,0.61366 7.676908,2.2514 0.865269,0.81044 5.225226,1.99812 16.803701,4.5774 8.59939,1.91564 16.08079,3.6244 16.62534,3.79723 2.58104,0.81919 2.27553,2.17053 -4.31801,19.09881 l -6.3002,16.17517 -5.02677,3.76186 c -2.76473,2.06902 -4.970125,3.8196 -4.900875,3.89016 0.28597,0.29144 15.841625,-1.04084 23.840585,-2.04184 10.66378,-1.33449 18.2835,-2.8991 21.35141,-4.38425 2.41105,-1.16717 5.02757,-4.01662 5.02757,-5.47513 0,-0.4527 -3.51539,-9.70424 -7.81199,-20.55898 -14.45706,-36.5237 -15.73819,-39.19295 -21.87492,-45.576237 -5.84163,-6.07635 -12.159,-8.500865 -19.458595,-7.467927 -5.03226,0.712098 -7.92851,2.131764 -16.427635,8.05242 -1.923043,1.339629 -2.938349,1.662623 -5.226332,1.662623 -2.45242,0 -3.297519,-0.314322 -6.197586,-2.305085 C 63.874618,83.245527 60.601056,81.696234 55.72079,81.005619 47.725162,79.874143 39.558534,83.738013 33.746147,91.402468 30.083748,96.23186 26.677049,103.68369 17.053213,127.91668 5.7024452,156.49811 6.4504852,154.16825 7.8813712,156.48348 c 0.643998,1.04201 2.3424448,2.52919 3.7853798,3.31454 4.336872,2.36042 19.911654,5.03013 36.732006,6.29632 8.368298,0.62994 8.406779,0.63151 8.406779,0.34102 z M 43.246215,111.3178 c -4.414338,-0.67142 -8.842403,-2.65909 -10.058479,-4.51506 -0.735944,-1.12319 -0.877139,-2.24362 -0.676575,-5.36884 0.485539,-7.565723 4.562337,-13.507098 11.682949,-17.026296 3.7515,-1.85409 4.508592,-2.035178 8.235757,-1.969903 9.529795,0.16691 17.84507,5.58887 20.408796,13.307529 1.731873,5.21418 0.22419,9.43872 -4.318698,12.10102 -5.083292,2.97901 -17.39425,4.67002 -25.27375,3.47155 z m 14.416915,-6.746 c 8.573228,-1.49504 10.768868,-3.66754 8.399799,-8.3113 -2.734329,-5.359727 -11.437938,-8.830241 -17.279343,-6.890037 -5.18931,1.723612 -9.876354,7.564997 -9.876354,12.308727 0,2.20959 -0.511706,1.95375 6.77966,3.38958 2.501212,0.49254 7.48883,0.28557 11.976238,-0.49697 z m 40.633925,6.76328 c -7.67564,-1.04526 -13.904066,-4.02533 -15.709348,-7.51636 -1.945508,-3.7622 -0.50336,-9.867056 3.340957,-14.142863 4.200981,-4.672505 13.244351,-8.130463 19.141826,-7.319355 3.79473,0.521909 8.80707,3.078227 11.69164,5.962804 4.61299,4.612984 7.43699,13.366664 5.68033,17.607604 -1.36725,3.30084 -6.66497,5.28206 -15.19624,5.68302 -2.8339,0.13319 -6.86102,0.009 -8.949165,-0.27485 z m 15.755485,-7.12597 c 2.54653,-0.832 2.89753,-2.02011 1.66523,-5.63672 -1.28139,-3.76066 -3.75626,-6.470277 -7.66919,-8.396607 -3.07275,-1.51271 -3.81121,-1.669017 -6.3729,-1.348957 -7.181275,0.897242 -13.412519,5.820122 -13.412519,10.596314 0,2.59515 3.621994,4.42496 10.847454,5.48007 3.927495,0.57351 12.244625,0.18715 14.941925,-0.6941 z m -52.924206,46.62282 -0.01618,-2.84745 -2.137123,2.44067 c -1.175414,1.34238 -2.144406,2.62373 -2.153307,2.84746 -0.0089,0.22373 0.960087,0.40678 2.153307,0.40678 h 2.169492 l -0.01616,-2.84746 z m 13.033133,-6.64406 v -9.49153 h -1.331086 c -0.946023,0 -1.88743,0.72862 -3.254237,2.51867 l -1.923151,2.51867 v 6.61128 c 0,3.6362 0.162712,6.77398 0.361584,6.97285 0.198866,0.19887 1.663273,0.36158 3.254237,0.36158 h 2.892653 z m 13.016949,2.13768 v -7.35384 l -1.738229,-2.16298 c -1.332046,-1.65756 -2.060795,-2.1254 -3.118644,-2.0021 l -1.380415,0.1609 -0.149945,8.65619 c -0.08247,4.76091 -0.02912,8.97108 0.118574,9.35594 0.174487,0.4547 1.319078,0.69973 3.268588,0.69973 h 3.000071 z m 10.887639,6.40469 c -0.2972,-0.52203 -1.39493,-1.92542 -2.4394,-3.11864 l -1.89904,-2.1695 -0.0203,2.75706 c -0.0112,1.51639 0.14235,2.91978 0.34122,3.11865 0.19887,0.19887 1.30576,0.36158 2.45976,0.36158 1.84253,0 2.03234,-0.11564 1.55782,-0.94915 z m -41.802892,-9.41466 c 2.833898,-3.61002 6.309695,-7.94143 7.723991,-9.62536 2.506132,-2.9839 2.571575,-3.15424 2.576272,-6.70567 0.0038,-2.67326 -0.175783,-3.58504 -0.673145,-3.42271 -0.372881,0.12171 -5.315254,1.22955 -10.98305,2.46186 -12.384891,2.69277 -12.203389,2.6434 -12.203389,3.31943 0,0.83648 7.785144,20.53988 8.114858,20.53788 0.160558,-0.001 2.610565,-2.95541 5.444463,-6.56543 z m 52.539547,-3.76898 c 2.19844,-5.67866 3.87318,-10.44883 3.72166,-10.60036 -0.15154,-0.15153 -5.55026,-1.44097 -11.99717,-2.86542 l -11.721666,-2.5899 0.0027,3.56882 0.0027,3.5688 7.688041,9.62712 c 4.228425,5.29492 7.827145,9.62457 7.997165,9.62146 0.17003,-0.003 2.10786,-4.65185 4.3063,-10.33052 z M 82.29706,125.05431 c 0,-4.41998 -0.905041,-5.54441 -4.462622,-5.54441 -3.939764,0 -4.757717,0.90029 -4.757717,5.23661 v 3.44136 h 4.61017 4.610169 z M 136.547,102.35108 c -2.77563,-9.754236 -4.91279,-15.157914 -7.18716,-18.172351 -5.92819,-7.857166 -12.6762,-12.688418 -21.84244,-15.63814 -2.08813,-0.671967 -4.10169,-1.606774 -4.47457,-2.077348 -0.93168,-1.175756 -0.8501,-3.110503 0.17433,-4.134937 1.21558,-1.215576 3.38819,-1.059151 7.92893,0.57088 5.46196,1.960727 8.149,3.384011 13.10346,6.940697 l 4.25756,3.056407 -0.23794,-11.540653 C 128.00559,48.57175 127.67881,47.020436 123.74005,39.854755 116.3935,26.489336 103.40391,16.881235 88.127568,13.513012 L 86.636043,13.184151 V 31.64679 50.10943 l -1.315938,0.599577 c -1.861402,0.848114 -4.046085,0.15245 -4.669347,-1.48685 -0.302151,-0.79471 -0.523189,-9.946079 -0.523189,-21.660684 0,-20.1317024 -0.0087,-20.2892444 -1.153351,-20.9018474 -1.317261,-0.704977 -3.684171,0.07269 -3.790568,1.245428 -0.03439,0.379277 -0.119268,0.933662 -0.188577,1.231967 -0.0693,0.298305 -0.163184,9.4944314 -0.208624,20.4358354 -0.09154,22.044078 -0.05672,21.831988 -3.528103,21.491758 -2.932474,-0.287409 -3.04615,-1.043499 -3.054986,-20.320169 l -0.008,-17.443424 -3.331336,0.777148 C 50.940338,17.326346 37.881902,27.692915 31.041383,40.928612 27.411267,47.952513 26.975029,50.257688 26.975029,62.416125 V 72.89106 l 2.763562,-2.184472 c 5.307486,-4.195325 16.13747,-9.230585 19.853413,-9.230585 2.777529,0 4.374416,2.912261 2.738956,4.995065 -0.372881,0.47488 -2.078075,1.259596 -3.789321,1.743815 -10.96034,3.101391 -21.84786,12.287729 -25.991959,21.930701 -1.105736,2.572957 -6.530331,21.301296 -6.250806,21.580816 0.08494,0.0849 1.671926,-3.46146 3.52664,-7.88088 5.030846,-11.987529 8.994861,-18.011187 15.013921,-22.814941 5.863222,-4.679381 11.372529,-6.694616 18.128845,-6.631305 6.964524,0.06526 14.021651,2.681003 20.613179,7.640325 1.619976,1.218837 3.477939,2.216065 4.128808,2.216065 0.650869,0 2.119262,-0.743729 3.263089,-1.652729 11.778529,-9.360402 25.601574,-10.833698 36.345884,-3.873839 4.52393,2.930479 10.34155,9.394782 13.31905,14.799577 1.38089,2.506627 3.82157,7.767477 5.42372,11.690777 1.60216,3.9233 2.98703,7.06284 3.07749,6.97677 0.0905,-0.0861 -1.07617,-4.51639 -2.5925,-9.84514 z"
     style="fill:#000000;stroke-width:0.54237288" />
</svg>
