<?xml version="1.0" encoding="UTF-8" standalone="no"?>
<svg
   xmlns:dc="http://purl.org/dc/elements/1.1/"
   xmlns:cc="http://creativecommons.org/ns#"
   xmlns:rdf="http://www.w3.org/1999/02/22-rdf-syntax-ns#"
   xmlns:svg="http://www.w3.org/2000/svg"
   xmlns="http://www.w3.org/2000/svg"
   viewBox="0 0 126.15972 169.92914"
   height="169.92914"
   width="126.15972"
   id="svg12"
   version="1.1">
  <metadata
     id="metadata18">
    <rdf:RDF>
      <cc:Work
         rdf:about="">
        <dc:format>image/svg+xml</dc:format>
        <dc:type
           rdf:resource="http://purl.org/dc/dcmitype/StillImage" />
        <dc:title></dc:title>
      </cc:Work>
    </rdf:RDF>
  </metadata>
  <defs
     id="defs16" />
  <path
     id="path146"
     d="m 52.193824,169.21101 c -4.599317,-0.854 -9.232822,-2.55821 -11.496839,-4.22855 C 34.74098,160.58825 27.900534,148.84239 18.617691,127.06968 11.464725,110.29255 7.8221483,98.244104 6.0209213,85.403703 5.3490653,80.614247 4.7189603,78.285124 3.3064133,75.369805 -0.43267568,67.652782 -0.95966748,59.647548 1.5184393,48.20968 4.3471443,35.153615 9.8413273,24.608219 18.556974,15.506351 25.387881,8.3727409 31.26111,4.6439009 40.532806,1.5541659 44.919269,0.0924048 45.62987,0.0170351 55.176875,9.4610305e-4 63.997203,-0.0139199 65.76836,0.1354432 69.820943,1.2358776 76.344615,3.0073089 81.728989,5.7500009 85.454809,9.1994489 l 3.196334,2.9592411 3.737441,-0.791805 c 9.417626,-1.9951941 17.064316,0.110846 23.042966,6.346466 10.402,10.849074 13.3823,35.248437 8.31574,68.079987 -2.38616,15.462452 -6.13144,27.040942 -15.66975,48.442902 -5.56013,12.47576 -8.636066,18.20666 -12.834436,23.91232 -5.23704,7.11723 -9.067568,9.49977 -17.82894,11.08941 -5.147336,0.93393 -20.131716,0.9179 -25.22034,-0.0269 z m 24.854053,-6.48397 c 4.626273,-0.88516 7.817546,-2.34289 9.872093,-4.50945 2.820014,-2.97375 8.454854,-12.03632 11.578784,-18.62225 12.064116,-25.43385 18.376376,-44.739376 19.314896,-59.072993 0.33859,-5.171352 0.28734,-5.120461 -2.73091,2.711865 -1.09206,2.833898 -3.8309,8.691522 -6.0863,13.016952 -9.143956,17.536326 -14.225426,27.780666 -14.209096,28.645756 0.009,0.50246 0.37559,1.38733 0.81356,1.96638 0.43797,0.57904 0.79631,1.4943 0.79631,2.03389 0,1.36669 -1.92657,3.15232 -3.38983,3.14185 -0.70313,-0.005 -5.443319,-3.10831 -11.184266,-7.32204 l -9.963927,-7.3133 h -6.971444 -6.971439 l -7.200223,5.28379 c -3.960124,2.90608 -8.420567,6.2066 -9.912092,7.33449 -3.297022,2.49318 -5.476865,2.57595 -6.762741,0.25676 -0.751569,-1.35552 -0.745485,-1.64697 0.06403,-3.06739 0.881449,-1.54663 0.857692,-1.6337 -1.627119,-5.96284 -1.386896,-2.41631 -5.152377,-8.16356 -8.367735,-12.77166 -3.215359,-4.6081 -6.952386,-10.403326 -8.304506,-12.878296 -1.35212,-2.47496 -2.337946,-4.0118 -2.190725,-3.41519 3.406243,13.803696 5.303023,19.269336 12.140413,34.983046 5.944383,13.66139 8.792996,19.33437 12.391739,24.67797 5.287314,7.85088 7.435924,9.48554 14.253275,10.84384 4.973299,0.9909 19.551193,1.01385 24.647252,0.0388 z m -1.745063,-26.61148 -3.315428,-2.44067 -6.91373,0.002 -6.91373,0.002 -3.254238,2.16604 c -3.5545,2.36589 -5.581364,2.7085 -6.966785,1.17763 -2.014693,-2.22621 -0.997006,-3.77369 5.016976,-7.62876 l 3.473915,-2.22664 h 8.797104 8.797099 l 4.103582,2.99681 c 4.310173,3.14769 5.149614,4.38925 4.185557,6.19061 -0.582308,1.08805 -2.189543,2.20241 -3.176532,2.20241 -0.285098,0 -2.010305,-1.0983 -3.83379,-2.44068 z m -27.754626,-19.11864 6.474593,-4.74576 2.610945,-10.51553 c 2.12416,-8.555006 2.833514,-10.661635 3.80473,-11.299211 1.471002,-0.965678 3.165955,-0.495398 4.266126,1.183675 0.754495,1.1515 0.643726,1.95724 -1.370381,9.968356 -1.205174,4.79357 -2.191224,8.84861 -2.191224,9.01118 0,0.16258 1.913366,0.29559 4.251921,0.29559 4.015702,0 4.286454,-0.0758 4.873372,-1.36392 1.621478,-3.55875 6.033205,-2.66004 6.091201,1.24083 0.02896,1.94739 0.259531,2.18634 6.297546,6.52612 3.447121,2.47759 6.313649,4.43013 6.370061,4.33898 0.05641,-0.0912 1.033516,-2.29325 2.171346,-4.89353 1.13782,-2.6003 4.15218,-8.57996 6.69857,-13.28814 9.720386,-17.97267 13.978896,-28.096505 16.148766,-38.39084 l 0.91459,-4.338983 -1.6773,-4.343713 C 109.59788,46.838583 102.25262,37.575746 95.583654,34.061983 91.079664,31.688908 86.985131,30.609085 80.508867,30.086412 77.464409,29.840706 72.817607,29.337867 70.182641,28.968994 63.904712,28.090133 57.894082,28.871742 53.185444,31.179271 48.299744,33.573575 45.120847,37.354973 40.771926,45.945544 34.050773,59.222062 28.953799,65.833235 20.122938,72.728872 l -4.423979,3.454492 0.502482,2.305085 c 1.683129,7.721166 4.694633,13.636245 13.737704,26.983051 3.941249,5.81695 7.876135,11.85737 8.744191,13.42317 0.868056,1.5658 1.760979,2.84716 1.984271,2.84746 0.223294,3e-4 3.319556,-2.13504 6.880581,-4.74521 z M 42.159925,83.776585 c -1.978772,-1.978772 -0.910993,-6.508475 1.534233,-6.508475 1.410396,0 0.47963,-0.98611 -2.219984,-2.351989 -3.907381,-1.976955 -4.889494,-1.85369 -7.936105,0.996057 -3.049151,2.852122 -4.969229,3.181803 -6.340685,1.088699 -1.260523,-1.923802 -0.661082,-3.514381 2.405489,-6.382796 2.521658,-2.358714 5.362222,-3.645228 8.063521,-3.652029 2.373444,-0.006 6.471918,1.789092 10.955552,4.798362 2.510042,1.684659 6.049025,3.795221 7.864407,4.690137 2.879794,1.419628 3.321719,1.843221 3.465573,3.3218 0.354321,3.64172 -2.732421,4.411081 -7.681671,1.914625 -2.646964,-1.335153 -3.059482,-1.418147 -3.059482,-0.615517 0,0.510248 -0.50585,1.570804 -1.124111,2.356795 -1.408537,1.790665 -4.311735,1.959333 -5.926737,0.344331 z M 85.04675,83.432254 c -0.618262,-0.785991 -1.124112,-1.846547 -1.124112,-2.356795 0,-0.80263 -0.412518,-0.719636 -3.059482,0.615517 -1.682717,0.848781 -3.719463,1.543236 -4.526107,1.543236 -1.934807,0 -3.390444,-1.660697 -3.166932,-3.613055 0.146696,-1.28134 0.729725,-1.812334 3.476941,-3.166606 1.815382,-0.894916 5.354365,-3.005478 7.864407,-4.690137 8.842309,-5.934677 13.593779,-6.221061 19.019075,-1.146333 3.06656,2.868415 3.666,4.458994 2.40548,6.382796 -1.37145,2.093104 -3.29153,1.763423 -6.340676,-1.088699 -3.04661,-2.849747 -4.02872,-2.973012 -7.93611,-0.996057 -2.765439,1.399186 -3.626586,2.351989 -2.125743,2.351989 1.233603,0 2.524743,1.894069 2.524743,3.703723 0,3.715645 -4.720995,5.372307 -7.011484,2.460421 z M 13.464695,69.584129 c 5.339151,-3.724833 12.246831,-10.677462 15.267517,-15.366867 1.345075,-2.088135 3.850765,-6.60339 5.568201,-10.033898 1.717436,-3.430509 4.03518,-7.579661 5.150541,-9.220339 C 46.419136,24.71295 56.870597,20.855504 72.824295,22.645523 l 3.816911,0.428261 3.167398,-3.585429 3.167404,-3.58543 -1.831772,-1.894436 C 79.006527,11.797643 73.106443,8.7789299 68.465011,7.5213019 63.449748,6.1623809 50.333333,5.8586279 45.273932,6.9842369 40.698444,8.0021869 34.966818,10.591201 30.368173,13.717269 26.603508,16.276413 19.865845,23.239149 17.087761,27.441314 10.159734,37.920739 5.8354053,52.477222 6.5553843,62.895228 c 0.29228,4.229262 1.670405,9.491526 2.485719,9.491526 0.223481,0 2.2140967,-1.26118 4.4235917,-2.802625 z M 118.94066,44.283903 C 116.20323,23.2424 107.70573,14.56059 93.041584,17.823054 c -3.670246,0.816553 -4.215678,1.117373 -6.088654,3.358053 -1.131498,1.353636 -1.971113,2.530463 -1.865812,2.615174 0.105297,0.08471 1.589685,0.42606 3.298631,0.758557 11.602215,2.257345 22.177651,11.181917 28.436831,23.997735 2.26572,4.639116 2.64843,5.158563 2.79295,3.790878 0.0921,-0.871664 -0.21159,-4.498463 -0.67487,-8.059548 z"
     style="fill:#000000;stroke-width:0.54237288" />
</svg>
