<?xml version="1.0" encoding="UTF-8" standalone="no"?>
<svg
   xmlns:dc="http://purl.org/dc/elements/1.1/"
   xmlns:cc="http://creativecommons.org/ns#"
   xmlns:rdf="http://www.w3.org/1999/02/22-rdf-syntax-ns#"
   xmlns:svg="http://www.w3.org/2000/svg"
   xmlns="http://www.w3.org/2000/svg"
   viewBox="0 0 140.42183 171.7269"
   height="171.7269"
   width="140.42183"
   id="svg22"
   version="1.1">
  <metadata
     id="metadata28">
    <rdf:RDF>
      <cc:Work
         rdf:about="">
        <dc:format>image/svg+xml</dc:format>
        <dc:type
           rdf:resource="http://purl.org/dc/dcmitype/StillImage" />
        <dc:title></dc:title>
      </cc:Work>
    </rdf:RDF>
  </metadata>
  <defs
     id="defs26" />
  <path
     id="path125"
     d="M 27.250068,170.98359 C 20.994257,169.29883 14.966035,164.9423 12.082749,160.02234 8.7069386,154.26196 7.7660536,146.6042 9.6789446,140.45807 l 1.0130384,-3.2549 -4.3536694,-7.77647 c -6.47483896,-11.56529 -7.461428,-15.77103 -5.316358,-22.66315 1.175921,-3.77824 3.727982,-7.306261 9.1970504,-12.714191 2.207974,-2.183286 3.660954,-4.043267 3.495447,-4.474572 -0.207192,-0.539933 -1.482969,-0.738127 -4.7513274,-0.738127 -6.406353,0 -6.263321,0.262254 -6.263321,-11.484067 0,-10.83373 0.171177,-11.295593 4.186392,-11.295593 h 2.202674 L 9.3394696,54.26039 C 9.5688116,43.464435 9.7121196,42.059753 11.028922,37.700749 17.494396,16.298112 35.232268,2.8083364 60.130072,0.35898139 67.618554,-0.37770851 81.449377,0.07029249 87.296524,1.2389428 111.96088,6.1685354 128.39137,22.819828 131.18578,45.718017 c 0.32764,2.684746 0.59639,8.359322 0.59723,12.610169 l 0.002,7.728814 h 1.93396 c 4.06966,0 4.03214,-0.105985 4.03214,11.38983 0,12.00032 0.33332,11.38983 -6.21865,11.38983 -5.92128,0 -5.88607,0.554099 0.44455,6.997609 6.42805,6.542671 8.08683,9.690791 8.39428,15.931071 0.26859,5.45137 -0.37184,7.33385 -5.92331,17.41114 l -4.44491,8.06864 0.85597,2.77882 c 1.34755,4.37462 1.60558,7.42668 0.94752,11.20735 -1.81905,10.45079 -9.83164,18.30616 -20.54676,20.1436 -7.08346,1.21468 -15.397576,-1.21125 -20.592046,-6.00846 l -2.33759,-2.15881 -2.81495,2.14085 c -9.002191,6.84645 -22.101895,6.63607 -30.945642,-0.49696 l -2.096803,-1.69121 -2.513367,2.23595 c -6.053233,5.38511 -15.149488,7.62317 -22.708864,5.58734 z m 13.805065,-7.49306 c 3.509391,-1.77834 5.760559,-3.6998 7.789321,-6.64851 2.018272,-2.93346 4.131194,-3.24676 6.062323,-0.89894 2.245809,2.73041 4.950845,5.03342 7.178978,6.11204 7.722494,3.73839 16.755183,1.82971 22.426029,-4.7388 3.37144,-3.90513 4.69504,-3.88547 7.71513,0.11461 5.54731,7.34736 14.798476,9.81354 22.899796,6.10463 8.97367,-4.10828 12.99279,-14.78158 8.78551,-23.33102 -2.7752,-5.63936 -8.03888,-9.39663 -14.24171,-10.16589 -3.75516,-0.4657 -5.54699,-1.59858 -5.54699,-3.50707 0,-2.30325 1.75112,-3.16071 5.81906,-2.84941 4.8211,0.36893 9.32449,2.13589 12.93145,5.0738 l 2.92277,2.38063 0.75616,-1.21776 c 0.41588,-0.66978 2.18367,-3.78048 3.9284,-6.91269 2.88317,-5.17595 3.18973,-6.04089 3.36409,-9.49152 0.26285,-5.20175 -0.69143,-7.15886 -6.27071,-12.86042 l -4.62492,-4.726291 -2.67959,2.40918 c -3.52883,3.172731 -8.36363,5.496171 -13.70603,6.586661 -3.62753,0.74045 -5.08465,0.78606 -8.886646,0.27817 -5.40887,-0.72253 -7.11335,-1.64852 -7.11335,-3.86445 0,-1.698961 1.21033,-3.280481 2.51054,-3.280481 0.44326,0 2.46883,0.27462 4.50126,0.61027 9.833416,1.623951 19.253846,-3.33164 23.925376,-12.585906 1.70736,-3.382254 2.35461,-3.733966 6.89333,-3.745774 l 2.84746,-0.0074 v -4.881356 -4.881356 h -1.77762 c -0.9777,0 -2.32007,-0.379943 -2.98305,-0.844312 -1.15105,-0.806226 -1.20543,-1.197738 -1.20543,-8.677966 V 55.209542 H 70.496412 15.716754 v 7.346685 c 0,7.077022 -0.04887,7.395552 -1.331279,8.677966 -0.912805,0.912808 -1.935742,1.331281 -3.254237,1.331281 H 9.2082786 v 4.881356 4.881356 h 3.2898944 c 1.809441,0 3.748363,0.245364 4.308714,0.545258 0.560352,0.299889 1.820595,2.049535 2.800542,3.888103 5.373237,10.081232 15.92829,14.429543 27.13559,11.178902 1.650669,-0.47877 2.255723,-0.42134 3.389831,0.32176 1.579069,1.03464 1.883953,3.552851 0.587156,4.849651 -1.288721,1.28872 -6.181179,2.23869 -11.410033,2.2155 -7.728448,-0.0343 -13.067375,-2.01418 -19.055457,-7.066561 l -2.784271,-2.3492 -4.357718,4.539101 c -5.6687524,5.9047 -6.3087944,7.14358 -6.3289064,12.25037 -0.01596,4.05234 -8.68e-4,4.09506 3.9675944,11.24842 l 3.983614,7.18063 2.253674,-1.78988 c 4.863814,-3.86286 9.817367,-5.79171 14.873853,-5.79171 3.603453,0 4.464566,0.58347 4.464566,3.02511 0,2.29331 -0.77774,2.82511 -5.007639,3.42414 -9.584396,1.35732 -15.613365,7.73046 -16.056658,16.97326 -0.173245,3.61224 -0.0078,4.58898 1.240199,7.32203 2.329919,5.10238 6.597576,8.87697 11.661691,10.31434 3.719992,1.05586 9.610006,0.54554 12.890618,-1.11688 z m 26.367099,-4.10313 c -6.598508,-1.64919 -11.006449,-7.85154 -10.318324,-14.51878 1.172599,-11.36142 15.025122,-15.98414 22.992135,-7.67271 3.230761,3.37043 4.292001,8.52768 2.787861,13.54804 -1.759137,5.87148 -9.419227,10.15366 -15.461672,8.64345 z m 5.441214,-6.7562 c 5.481247,-2.29021 5.674625,-9.78416 0.323873,-12.55114 -5.72768,-2.9619 -11.968737,3.6226 -8.955916,9.44876 1.088212,2.10437 3.419065,3.5405 6.146837,3.7873 0.382459,0.0346 1.500805,-0.27361 2.485206,-0.68492 z m -42.147269,2.67485 c -5.417775,-1.94802 -7.286433,-7.51117 -4.214421,-12.5467 1.8908,-3.09932 6.975668,-4.42246 10.329866,-2.68793 7.255864,3.75215 5.661532,14.15344 -2.403005,15.67702 -0.894915,0.16907 -2.565513,-0.03 -3.71244,-0.44239 z m 3.697912,-6.60014 c 0.990806,-0.99081 0.882274,-1.78308 -0.350812,-2.56088 -1.896356,-1.1962 -3.573505,1.1799 -1.966863,2.78655 0.86158,0.86158 1.270216,0.82179 2.317675,-0.22567 z m 70.509411,6.80981 c -0.90239,-0.26254 -2.47306,-1.33612 -3.49038,-2.38573 -1.580526,-1.6307 -1.881486,-2.36304 -2.068316,-5.03306 -0.1825,-2.60836 -0.007,-3.43835 1.060516,-5.02298 0.70353,-1.04407 2.12852,-2.32505 3.16664,-2.84662 3.79553,-1.90693 8.34839,-0.70001 10.73825,2.84662 1.06778,1.58463 1.24302,2.41462 1.06051,5.02298 -0.18655,2.66601 -0.48862,3.40323 -2.05785,5.02225 -1.01155,1.04367 -2.70426,2.1379 -3.76156,2.43162 -2.20613,0.61288 -2.42641,0.61122 -4.64781,-0.0351 z m 3.45087,-6.40972 c 0.39898,-0.25289 0.64304,-1.04238 0.54237,-1.75441 -0.13692,-0.96833 -0.52289,-1.29459 -1.53155,-1.29459 -1.53357,0 -2.11299,1.48186 -1.07055,2.73792 0.75004,0.90374 1.05263,0.94944 2.05973,0.31108 z M 44.772443,121.06911 c -1.019607,-1.01961 -1.124426,-3.68248 -0.174335,-4.4288 0.372881,-0.29291 1.790075,-0.94809 3.149315,-1.45596 1.359241,-0.50787 4.709207,-2.58785 7.444366,-4.62219 7.370234,-5.48178 12.177567,-7.05548 18.210949,-5.96142 4.203759,0.76228 6.752515,2.00931 11.737736,5.74291 2.23729,1.67558 5.5836,3.74377 7.43625,4.59597 3.95431,1.81896 4.87025,3.0667 3.83885,5.22944 -1.52869,3.20547 -6.66987,1.74367 -14.48965,-4.11986 -5.812352,-4.35831 -7.613339,-5.1456 -11.729786,-5.12761 -3.827222,0.0168 -5.26144,0.65717 -11.360742,5.07308 -7.268491,5.26241 -12.123216,7.01417 -14.062953,5.07444 z M 35.422491,90.544555 c -5.254316,-1.815756 -8.402224,-5.142069 -10.491308,-11.08589 -1.454981,-4.139678 -1.414461,-6.5966 0.12659,-7.675997 1.032379,-0.723103 3.796468,-0.844312 19.254239,-0.844312 17.325645,0 18.092267,0.04344 19.133553,1.084745 0.59661,0.596611 1.084745,1.525099 1.084745,2.063306 0,2.775403 -7.245222,10.893017 -12.539459,14.049323 -3.275656,1.952874 -8.283113,3.421684 -11.574492,3.395086 -1.20512,-0.0098 -3.452366,-0.453554 -4.993868,-0.986261 z m 11.257163,-6.864976 c 2.398573,-1.214303 7.545572,-5.140822 7.545572,-5.756334 0,-0.262026 -5.25242,-0.476415 -11.672037,-0.476415 H 30.881147 l 1.038055,2.033898 c 1.248484,2.4462 2.462114,3.603162 4.966229,4.734341 2.334286,1.054465 7.17658,0.789716 9.794223,-0.53549 z m 49.36503,7.01063 c -5.92141,-1.592358 -11.48338,-5.64723 -16.014822,-11.675384 -2.821808,-3.753839 -3.198427,-5.88646 -1.277174,-7.232157 1.03238,-0.723103 3.796466,-0.844312 19.254236,-0.844312 17.664946,0 18.073256,0.02446 19.198386,1.149581 1.57197,1.571975 1.09073,4.933353 -1.44618,10.101087 -3.79118,7.722706 -11.0191,10.839495 -19.714446,8.501185 z m 9.147496,-6.520559 c 2.12763,-0.851313 5.43982,-4.514386 5.43982,-6.016108 0,-0.559718 -2.45363,-0.702085 -11.796606,-0.684469 l -11.79661,0.02224 2.43995,2.205022 c 5.31016,4.798894 10.913226,6.393975 15.713446,4.473308 z m 19.54151,-37.551316 c 0,-3.527349 -2.01247,-10.186711 -4.58183,-15.161458 C 114.66419,20.831735 104.14513,12.551706 91.467004,8.8777284 80.402917,5.6714834 62.100334,5.5506824 50.193677,8.6053154 32.986942,13.019674 19.924169,26.116443 16.580033,42.306441 c -0.474804,2.298672 -0.863279,4.677827 -0.863279,5.287015 v 1.107612 h 54.508471 54.508465 z"
     style="fill:#000000;stroke-width:0.54237288" />
</svg>
