<?xml version="1.0" encoding="UTF-8" standalone="no"?>
<svg
   xmlns:dc="http://purl.org/dc/elements/1.1/"
   xmlns:cc="http://creativecommons.org/ns#"
   xmlns:rdf="http://www.w3.org/1999/02/22-rdf-syntax-ns#"
   xmlns:svg="http://www.w3.org/2000/svg"
   xmlns="http://www.w3.org/2000/svg"
   viewBox="0 0 251.66101 134.29669"
   height="134.29669"
   width="251.66101"
   id="svg32"
   version="1.1">
  <metadata
     id="metadata38">
    <rdf:RDF>
      <cc:Work
         rdf:about="">
        <dc:format>image/svg+xml</dc:format>
        <dc:type
           rdf:resource="http://purl.org/dc/dcmitype/StillImage" />
        <dc:title></dc:title>
      </cc:Work>
    </rdf:RDF>
  </metadata>
  <defs
     id="defs36" />
  <path
     id="path46"
     d="m 117.42373,133.7831 c -8.35508,-1.04364 -18.801284,-4.96622 -25.697994,-9.64968 -6.583948,-4.47108 -13.195869,-11.78951 -16.507132,-18.271 -0.562397,-1.10084 -1.90708,-2.21412 -3.880119,-3.21238 C 65.600039,99.746654 60.901842,93.400842 59.707531,86.940232 59.38143,85.176203 58.932481,83.577146 58.709853,83.386763 58.48723,83.196384 56.668415,82.61175 54.668041,82.087574 48.241454,80.403571 41.709062,76.813225 37.60543,72.709594 36.540271,71.644433 33.661104,68.059625 31.207281,64.743362 23.599134,54.461177 17.700006,50.032527 6.265626,46.018921 0.565066,44.017956 0,43.625427 0,41.666445 0,39.199349 1.353438,38.6179 10.576271,37.122789 28.304782,34.248824 32.77325,33.838507 46.644068,33.810867 c 12.895068,-0.0257 13.463143,0.01913 19.204562,1.515285 5.257953,1.37017 5.969356,1.447185 6.391984,0.691987 3.459791,-6.182303 11.625101,-15.936614 17.558482,-20.975426 23.617754,-20.0569507 48.445084,-20.0569507 72.062834,0 5.93338,5.038812 14.09869,14.793123 17.55848,20.975426 0.42263,0.755198 1.13403,0.678183 6.39198,-0.691987 5.74142,-1.496158 6.3095,-1.540981 19.20457,-1.515285 13.87081,0.02764 18.33928,0.437957 36.06779,3.311922 9.22284,1.495111 10.57627,2.07656 10.57627,4.543656 0,1.96686 -0.68225,2.443612 -6.13414,4.286468 -11.11288,3.756394 -17.47508,8.521894 -25.05686,18.768456 -2.44488,3.304174 -5.39657,6.935702 -6.55931,8.070064 -4.35138,4.245141 -10.46765,7.605982 -16.91773,9.296141 -2.00037,0.524176 -3.81919,1.10881 -4.04181,1.299189 -0.22263,0.190383 -0.67158,1.78944 -0.99768,3.553469 -1.19431,6.46061 -5.8925,12.806422 -11.63095,15.709808 -1.97304,0.99826 -3.31772,2.11154 -3.88012,3.21238 -1.91476,3.74796 -6.47422,9.73986 -9.72638,12.7821 -12.71325,11.8926 -30.80247,17.44815 -49.29231,15.13858 z m 22.13914,-7.49169 c 9.07108,-2.46356 16.4308,-6.42826 22.38342,-12.058 2.94566,-2.78588 7.60112,-8.46151 7.21506,-8.79614 -0.11671,-0.10115 -0.76134,-0.46964 -1.43253,-0.81884 -0.89549,-0.46591 -1.22034,-1.11749 -1.22034,-2.44774 0,-2.323326 0.55695,-2.706716 5.09923,-3.510206 4.69267,-0.83009 6.44133,-1.70608 9.68698,-4.852688 4.73525,-4.590753 5.72852,-10.374064 3.89849,-22.698744 -4.35084,-29.301347 -23.83956,-54.810065 -48.24402,-63.1464178 -3.26728,-1.116073 -4.81747,-1.296889 -11.11865,-1.296889 -6.30117,0 -7.85136,0.180816 -11.11864,1.296889 C 90.307406,16.298987 70.81868,41.807705 66.467846,71.109052 c -1.830036,12.32468 -0.836762,18.107991 3.89849,22.698744 3.245646,3.146608 4.994305,4.022598 9.686975,4.852688 4.542286,0.80349 5.099232,1.18688 5.099232,3.510206 0,1.33025 -0.324848,1.98183 -1.220339,2.44774 -0.671186,0.3492 -1.315823,0.71769 -1.432531,0.81884 -0.383854,0.33272 4.262324,6.00373 7.146903,8.72335 7.09954,6.69353 16.529394,11.28694 26.978944,13.14181 5.01221,0.8897 18.05561,0.31478 22.93735,-1.01102 z m -26.74931,-19.04355 c -6.85724,-0.84779 -9.72219,-1.59468 -10.30676,-2.68696 -0.83181,-1.55424 -0.64662,-2.98711 0.52284,-4.04545 1.01706,-0.920426 1.34291,-0.920986 7.45763,-0.0127 8.51827,1.26529 22.18307,1.27227 30.69762,0.0157 6.10368,-0.900796 6.45476,-0.900466 7.45763,0.007 0.57882,0.52382 1.0524,1.4781 1.0524,2.12062 0,2.27401 -1.26444,3.13443 -5.74839,3.91163 -5.30615,0.91972 -25.63163,1.37025 -31.13297,0.69009 z m 7.42942,-18.621331 c -4.21674,-1.569665 -7.42942,-4.543652 -7.42942,-6.87745 0,-0.924258 2.15133,-2.676556 3.28605,-2.676556 0.6141,0 2.01749,0.712049 3.11864,1.582329 2.92487,2.311642 6.03253,3.097616 8.91735,2.255344 1.2678,-0.370153 3.20602,-1.385058 4.30718,-2.255344 2.34919,-1.856651 3.82302,-1.994506 5.31994,-0.497584 2.19404,2.194045 0.84203,4.745025 -3.87576,7.312765 -2.37035,1.290104 -3.67243,1.604762 -7.23617,1.748648 -2.81959,0.113839 -5.06987,-0.09411 -6.40781,-0.592152 z M 94.048306,72.898004 C 82.890615,72.086733 78.003619,71.532374 77.370339,71.006115 76.86271,70.584279 76.474577,69.471406 76.474577,68.437773 c 0,-1.572594 0.429793,-2.164274 3.118644,-4.29331 1.715255,-1.358139 4.936494,-3.375267 7.158314,-4.482505 3.773161,-1.880353 4.363551,-2.012589 8.949151,-2.004448 4.505244,0.008 5.218974,0.163228 8.668244,1.885283 4.21639,2.105041 10.88766,8.235856 11.46501,10.53619 0.22736,0.905892 0.0374,1.890489 -0.53241,2.760206 -1.06111,1.61946 0.16433,1.61607 -21.253224,0.05882 z m 10.087294,-6.05382 c 0,-0.801508 -5.942474,-2.948035 -8.174574,-2.952803 -2.41638,-0.0054 -7.87358,1.483271 -7.3517,2.005153 0.57061,0.570609 15.526274,1.483428 15.526274,0.94765 z m 32.40678,6.417801 c -1.39839,-1.553649 -1.17027,-2.964231 0.92266,-5.705259 2.38358,-3.121675 6.59891,-6.481062 10.51985,-8.383739 2.63784,-1.280043 3.75151,-1.490332 7.97545,-1.50599 4.59483,-0.01703 5.16839,0.110823 8.94915,1.994961 2.22182,1.107238 5.44306,3.124366 7.15831,4.482505 2.72065,2.154213 3.11865,2.708996 3.11865,4.347217 0,3.069548 -0.81833,3.282218 -16.54238,4.299118 -7.75593,0.501587 -15.68813,1.050072 -17.62711,1.218853 -3.04005,0.264624 -3.65611,0.161687 -4.47458,-0.747666 z m 25.25691,-7.176841 1.72614,-0.360841 -2.67289,-0.91911 c -3.7535,-1.290696 -7.0972,-1.157592 -10.47965,0.417166 -1.5661,0.729128 -2.84746,1.476578 -2.84746,1.661006 0,0.390254 11.72521,-0.265437 14.27386,-0.798221 z M 94.099806,46.930483 c -0.4744,-0.265489 -0.81167,-1.226629 -0.81167,-2.313085 0,-3.191636 1.58528,-3.769803 10.561904,-3.852032 6.94315,-0.0636 8.10152,-0.221736 12.91213,-1.762712 3.59203,-1.150631 6.36952,-1.692842 8.67163,-1.692842 3.61258,0 4.3743,0.175349 10.7018,2.463581 3.77917,1.366672 4.62031,1.464426 11.85467,1.3777 9.08504,-0.108912 10.38262,0.325275 10.38262,3.474173 0,1.2362 -0.32059,2.026355 -0.94915,2.339339 -0.52204,0.25994 -5.22034,0.435324 -10.44068,0.389741 l -9.49153,-0.08288 -5.31504,-1.997777 c -2.92328,-1.098778 -5.89321,-1.997778 -6.59984,-1.997778 -0.70664,0 -3.92843,0.826071 -7.15953,1.835714 -5.44548,1.701579 -6.51887,1.851692 -14.69019,2.054401 -4.848504,0.120278 -9.180704,0.01429 -9.627124,-0.235545 z m 6.438514,-14.039057 c -0.732054,-0.808901 -0.825884,-1.36143 -0.42484,-2.501765 0.7825,-2.225027 2.59085,-2.825642 8.5344,-2.834565 4.78269,-0.0072 5.75067,-0.187763 9.49153,-1.770707 5.9138,-2.502429 9.70973,-2.421802 15.28432,0.324643 4.05478,1.997675 4.08429,2.00301 9.22034,1.666939 5.80619,-0.379921 7.82445,0.121952 8.76157,2.1787 0.49261,1.081153 0.43572,1.614627 -0.29035,2.722754 -0.89382,1.364139 -0.978,1.37815 -8.27986,1.37815 -7.26829,0 -7.43874,-0.02794 -11.58119,-1.898305 -2.31238,-1.044068 -4.85817,-1.898305 -5.65731,-1.898305 -0.79915,0 -3.17234,0.731648 -5.27377,1.625884 -3.50047,1.489586 -4.45053,1.643442 -11.33303,1.835326 -6.86365,0.191358 -7.59338,0.119804 -8.45181,-0.828749 z M 59.879843,72.714888 c 0.204459,-2.021945 0.849036,-5.972768 1.432391,-8.779612 0.583354,-2.80684 1.060648,-5.311566 1.060648,-5.566058 0,-0.754837 -5.805218,-4.241025 -9.816906,-5.895317 C 46.092497,49.80858 37.077739,47.86561 23.864407,46.289949 l -1.898305,-0.226369 1.608692,1.182438 c 3.855471,2.833888 7.826778,7.031273 12.11861,12.808493 5.255689,7.074663 8.199689,10.117657 11.891627,12.291487 2.63418,1.551018 10.99328,4.613391 11.592749,4.247029 0.181673,-0.111034 0.4976,-1.856195 0.702063,-3.878139 z m 142.831977,0.320781 c 4.4172,-2.239501 7.5671,-5.322614 13.22981,-12.949272 4.37865,-5.897274 7.53894,-9.248043 11.85903,-12.573858 l 1.89426,-1.45829 -1.8983,0.231034 c -13.54188,1.648121 -22.21993,3.519932 -28.69157,6.188618 -4.01169,1.654292 -9.81691,5.14048 -9.81691,5.895317 0,0.254492 0.47426,2.759218 1.05392,5.566058 0.57965,2.806844 1.22185,6.689789 1.42711,8.628772 0.20526,1.938983 0.46369,3.685955 0.57428,3.882159 0.3162,0.560949 6.63386,-1.517158 10.36837,-3.410538 z M 66.614189,47.242847 c 0.957012,-2.292764 1.553541,-4.339812 1.325625,-4.548996 -0.759176,-0.696784 -7.398476,-2.095853 -12.888966,-2.716032 -5.160667,-0.582924 -17.075351,-0.346416 -21.423729,0.425263 -1.579869,0.280369 -0.780897,0.541594 4.762937,1.557245 3.663683,0.6712 8.423005,1.75137 10.576268,2.400378 4.170148,1.256908 11.878618,4.725529 13.677744,6.154644 0.596611,0.473915 1.342455,0.869419 1.657427,0.87891 0.314978,0.0095 1.355688,-1.858649 2.312694,-4.151412 z m 124.070461,2.268789 c 5.94903,-3.582322 16.86944,-7.000943 26.14564,-8.184863 2.65265,-0.338558 2.88831,-0.454301 1.62709,-0.799125 -2.99957,-0.820104 -16.42315,-1.155909 -21.8472,-0.546532 -5.48504,0.616228 -12.1281,2.01439 -12.88897,2.712735 -0.44892,0.412024 2.82566,8.717655 3.43701,8.717655 0.20426,0 1.79115,-0.854942 3.52643,-1.89987 z"
     style="fill:#000000;stroke-width:0.54237288" />
</svg>
